<?xml version="1.0" encoding="UTF-8"?>
<svg width="58px" height="58px" viewBox="0 0 58 58" version="1.1" xmlns="http://www.w3.org/2000/svg"
>
  <!-- Generator: Sketch 55.1 (78136) - https://sketchapp.com -->
  <title>Group 16</title>
  <desc>Created with Sketch.</desc>
  <g id="Page-1" stroke="none" stroke-width="1" fill="none" fill-rule="evenodd">
    <g id="Desktop-HD" transform="translate(-642.000000, -955.000000)" fill="#BBBBBB" fill-rule="nonzero">
      <g id="Group-16" transform="translate(642.000000, 955.000000)">
        <path
            d="M29,58 C45.01525,58 58,45.01525 58,29 C58,12.98475 45.01525,0 29,0 C12.98475,0 0,12.98475 0,29 C0,45.01525 12.98475,58 29,58 Z M17.62475,32.12475 C18.5696667,31.1798333 20.097,31.1798333 21.0419167,32.12475 L26.5833333,37.6661667 L26.5833333,14.5 C26.5833333,13.166 27.6635833,12.0833333 29,12.0833333 C30.3364167,12.0833333 31.4166667,13.166 31.4166667,14.5 L31.4166667,37.6661667 L36.9580833,32.12475 C37.903,31.1798333 39.4303333,31.1798333 40.37525,32.12475 C41.3201667,33.0696667 41.3201667,34.597 40.37525,35.5419167 L30.7085833,45.2085833 C30.2373333,45.6798333 29.6186667,45.9166667 29,45.9166667 C28.3813333,45.9166667 27.7626667,45.6798333 27.2914167,45.2085833 L17.62475,35.5419167 C16.6798333,34.597 16.6798333,33.0696667 17.62475,32.12475 Z"
            id="Shape"></path>
      </g>
    </g>
  </g>
</svg>