<?xml version="1.0" encoding="UTF-8"?>
<svg width="115px" height="47px" viewBox="0 0 115 47" version="1.1" xmlns="http://www.w3.org/2000/svg">
  <!-- Generator: Sketch 59.1 (86144) - https://sketch.com -->
  <title>Ovo 2</title>
  <desc>Created with Sketch.</desc>
  <g id="Page-1" stroke="none" stroke-width="1" fill="none" fill-rule="evenodd">
    <g id="Artboard" transform="translate(-286.000000, -419.000000)" fill="#4A4A4A" fill-rule="nonzero">
      <g id="Ovo-2" transform="translate(286.000000, 419.000000)">
        <path
            d="M23.375,0 C31.2500394,0 37.8333069,3.64579688 43.125,10.9375 C45.5208453,15.0833541 46.71875,19.2603956 46.71875,23.46875 C46.71875,31.2604556 43.1979519,37.7395575 36.15625,42.90625 C32.15623,45.4479294 27.9687719,46.71875 23.59375,46.71875 L23.125,46.71875 C15.0832931,46.71875 8.53127531,42.9896206 3.46875,35.53125 C1.15623844,31.7395644 0,27.6458553 0,23.25 C0,15.7916294 3.27080062,9.52085875 9.8125,4.4375 C14.0833547,1.47915188 18.6041428,0 23.375,0 Z M6.46875,23.59375 C6.46875,28.9896103 8.86455937,33.5416481 13.65625,37.25 C16.6145981,39.25001 19.7708166,40.25 23.125,40.25 L23.71875,40.25 C28.9896097,40.25 33.458315,37.8958569 37.125,33.1875 C39.2083437,30.187485 40.25,26.9062678 40.25,23.34375 C40.25,17.2395528 37.4479447,12.4062678 31.84375,8.84375 C29.0937363,7.26040875 26.2708478,6.46875 23.375,6.46875 C17.7916388,6.46875 13.1562684,8.90622562 9.46875,13.78125 C7.46875,16.6562644 6.46875,19.927065 6.46875,23.59375 Z M50.3585,12.6875 L50.57725,12.6875 C52.243925,12.6875 53.5980781,14.1666519 54.63975,17.125 L63.82725,36 L68.1356537,26.9031027 C72.1681605,18.4488209 74.3986764,13.9915698 74.82725,13.53125 C75.5772538,12.9687472 76.3272463,12.6875 77.07725,12.6875 C79.2022606,13.0833353 80.26475,14.1354081 80.26475,15.84375 L80.26475,15.96875 C80.26475,16.5104194 78.5147675,20.4062138 75.01475,27.65625 L66.2335,45.6875 C65.3168288,46.3750034 64.5147534,46.71875 63.82725,46.71875 L63.7335,46.71875 C61.9626578,46.71875 60.4939225,45.0312669 59.32725,41.65625 L53.6325382,29.9784523 C49.7332636,21.9324725 47.6210985,17.4292684 47.296,16.46875 L47.296,15.65625 C47.6710019,13.6770734 48.691825,12.6875 50.3585,12.6875 Z M97.9045,13.03125 C102.258688,13.03125 106.196149,14.6770669 109.717,17.96875 C113.071183,21.4896009 114.74825,25.4583113 114.74825,29.875 C114.74825,36.1875316 111.769113,41.1458153 105.81075,44.75 C103.20657,46.0625066 100.685762,46.71875 98.24825,46.71875 L97.31075,46.71875 C92.7690606,46.71875 88.5503528,44.5937713 84.6545,40.34375 C82.2586547,36.9687331 81.06075,33.4791847 81.06075,29.875 C81.06075,24.3958059 83.4773925,19.8125184 88.31075,16.125 C91.3940988,14.0624897 94.5919834,13.03125 97.9045,13.03125 Z M97.72525,19.78125 C93.3293947,19.78125 90.1002603,22.0937269 88.03775,26.71875 C87.704415,27.8020887 87.53775,28.8124953 87.53775,29.75 L87.53775,29.75 L87.53775,30.3125 C87.53775,34.2083528 89.4231478,37.2291559 93.194,39.375 C94.52734,40.0625034 95.9648256,40.40625 97.5065,40.40625 L97.5065,40.40625 L98.194,40.40625 C102.214853,40.40625 105.298156,38.3125209 107.444,34.125 C107.923169,32.8333269 108.16275,31.5625063 108.16275,30.3125 L108.16275,30.3125 L108.16275,29.75 C108.16275,26.5208172 106.673182,23.7916778 103.694,21.5625 C101.964825,20.3749941 99.9752613,19.78125 97.72525,19.78125 Z"
            id="Ovo"></path>
      </g>
    </g>
  </g>
</svg>
