<svg xmlns="http://www.w3.org/2000/svg" width="48" height="48"
     viewBox="0 0 48 48">
  <defs>
    <clipPath id="a">
      <rect width="48" height="48" fill="none" />
    </clipPath>
  </defs>
  <g clip-path="url(#a)">
    <ellipse cx="18.5" cy="15" rx="18.5" ry="15" transform="translate(4 9)" fill="#fff" />
    <path
        d="M27,3A24,24,0,1,0,51,27,24,24,0,0,0,27,3Zm9.414,30.586a2,2,0,1,1-2.828,2.828L27,29.828l-6.586,6.586a2,2,0,0,1-2.828-2.828L24.172,27l-6.586-6.586a2,2,0,0,1,2.828-2.828L27,24.172l6.586-6.586a2,2,0,1,1,2.828,2.828L29.828,27Z"
        transform="translate(-3 -3)" fill="#a2a2a2" />
  </g>
</svg>
