<?xml version="1.0" encoding="UTF-8"?>
<svg width="88px" height="88px" viewBox="0 0 88 88" version="1.1" xmlns="http://www.w3.org/2000/svg" xmlns:xlink="http://www.w3.org/1999/xlink">
    <!-- Generator: Sketch 59.1 (86144) - https://sketch.com -->
    <title>Ellipsis</title>
    <desc>Created with Sketch.</desc>
    <g id="Pages" stroke="none" stroke-width="1" fill="none" fill-rule="evenodd">
        <g id="Artboard" transform="translate(-601.000000, -166.000000)" fill="#000000" fill-rule="nonzero">
            <g id="Ellipsis" transform="translate(601.000000, 166.000000)">
                <path d="M43.75,0 C19.625,0 0,19.625 0,43.75 C0,67.875 19.625,87.5 43.75,87.5 C67.875,87.5 87.5,67.875 87.5,43.75 C87.5,19.625 67.875,0 43.75,0 Z M43.75,6.25 C64.5,6.25 81.25,23 81.25,43.75 C81.25,64.5 64.5,81.25 43.75,81.25 C23,81.25 6.25,64.5 6.25,43.75 C6.25,23 23,6.25 43.75,6.25 Z M25,37.5 C21.5625,37.5 18.75,40.3125 18.75,43.75 C18.75,47.1875 21.5625,50 25,50 C28.4375,50 31.25,47.1875 31.25,43.75 C31.25,40.3125 28.4375,37.5 25,37.5 Z M43.75,37.5 C40.3125,37.5 37.5,40.3125 37.5,43.75 C37.5,47.1875 40.3125,50 43.75,50 C47.1875,50 50,47.1875 50,43.75 C50,40.3125 47.1875,37.5 43.75,37.5 Z M62.5,37.5 C59.0625,37.5 56.25,40.3125 56.25,43.75 C56.25,47.1875 59.0625,50 62.5,50 C65.9375,50 68.75,47.1875 68.75,43.75 C68.75,40.3125 65.9375,37.5 62.5,37.5 Z" id="Shape"></path>
            </g>
        </g>
    </g>
</svg>