<?xml version="1.0" encoding="UTF-8"?>
<svg width="39px" height="38px" viewBox="0 0 39 38" version="1.1" xmlns="http://www.w3.org/2000/svg"
>
  <!-- Generator: Sketch 55.1 (78136) - https://sketchapp.com -->
  <title>IN</title>
  <desc>Created with Sketch.</desc>
  <g id="Page-1" stroke="none" stroke-width="1" fill="none" fill-rule="evenodd">
    <g id="Desktop-HD" transform="translate(-444.000000, -5355.000000)" fill="#525252" fill-rule="nonzero">
      <g id="Group-19" transform="translate(0.000000, 4861.000000)">
        <g id="Social-medias" transform="translate(444.000000, 494.000000)">
          <path
              d="M11.3454545,0 C5.088,0 0,5.035 0,11.2272727 L0,26.7727273 C0,32.965 5.088,38 11.3454545,38 L27.0545455,38 C33.312,38 38.4,32.965 38.4,26.7727273 L38.4,11.2272727 C38.4,5.035 33.312,0 27.0545455,0 L11.3454545,0 Z M29.6727273,6.90909091 C30.6327273,6.90909091 31.4181818,7.68636364 31.4181818,8.63636364 C31.4181818,9.58636364 30.6327273,10.3636364 29.6727273,10.3636364 C28.7127273,10.3636364 27.9272727,9.58636364 27.9272727,8.63636364 C27.9272727,7.68636364 28.7127273,6.90909091 29.6727273,6.90909091 Z M19.2,9.5 C24.4974545,9.5 28.8,13.7577273 28.8,19 C28.8,24.2422727 24.4974545,28.5 19.2,28.5 C13.9025455,28.5 9.6,24.2422727 9.6,19 C9.6,13.7577273 13.9025455,9.5 19.2,9.5 Z M19.2,11.2272727 C14.8712727,11.2272727 11.3454545,14.7163636 11.3454545,19 C11.3454545,23.2836364 14.8712727,26.7727273 19.2,26.7727273 C23.5287273,26.7727273 27.0545455,23.2836364 27.0545455,19 C27.0545455,14.7163636 23.5287273,11.2272727 19.2,11.2272727 Z"
              id="IN"></path>
        </g>
      </g>
    </g>
  </g>
</svg>
