<svg xmlns="http://www.w3.org/2000/svg" width="21.684" height="21.684" viewBox="0 0 21.684 21.684"><path d="M9.407,3A6.413,6.413,0,0,0,3,9.407v8.871a6.413,6.413,0,0,0,6.407,6.407h8.871a6.413,6.413,0,0,0,6.407-6.407V9.407A6.413,6.413,0,0,0,18.278,3ZM19.756,6.943a.986.986,0,1,1-.986.986A.989.989,0,0,1,19.756,6.943ZM13.842,8.421a5.421,5.421,0,1,1-5.421,5.421A5.424,5.424,0,0,1,13.842,8.421Zm0,.986a4.435,4.435,0,1,0,4.435,4.435A4.442,4.442,0,0,0,13.842,9.407Z" transform="translate(-3 -3)" fill="#525252"/></svg>