<?xml version="1.0" encoding="UTF-8"?>
<svg xmlns:xlink="http://www.w3.org/1999/xlink" width="143px" height="143px" viewBox="0 0 143 143" version="1.1"
     xmlns="http://www.w3.org/2000/svg">
  <!-- Generator: Sketch 59.1 (86144) - https://sketch.com -->
  <title>Logo</title>
  <desc>Created with Sketch.</desc>
  <defs>
    <circle id="path-1" cx="70.5" cy="70.5" r="33.5"></circle>
  </defs>
  <g id="Page-1" stroke="none" stroke-width="1" fill="none" fill-rule="evenodd">
    <g id="Prana--1-" transform="translate(-198.000000, -327.000000)">
      <g id="Logo" transform="translate(200.000000, 329.000000)">
        <g id="Prana-Logo" fill="#40AF48" fill-rule="nonzero" stroke="#000000" stroke-width="2">
          <path
              d="M55.0312631,18.3347018 C54.6506272,10.6326974 60.017593,3.67230138 66.9451659,0 C66.9261341,12.330355 67.1449997,24.669645 66.8214592,37 C59.9795294,33.0953876 54.5364365,26.1439266 55.0312631,18.3347018 Z"
              id="Path"></path>
          <path
              d="M73.3645681,15 C80.2820143,20.8335535 85.086835,29.3755426 84.9653123,38.3976222 C85.3953158,46.7493867 81.7963742,55.0015097 75.8978491,61.0162295 C75.065886,61.840536 74.0002253,62.3840347 73,63 C73.8319631,55.7261747 72.7289109,48.4342329 73.2991328,41.1513493 C73.3926118,32.4372523 73.1308706,23.714097 73.3645681,15 Z"
              id="Path"></path>
          <path
              d="M92.5910299,28.073692 C97.3078257,19.8500613 107.969936,16.1152732 117,18.9274533 C108.283792,27.7099716 99.4868778,36.4392625 90.5554545,45 C89.8470384,39.3490261 89.2372625,33.0681949 92.5910299,28.073692 Z"
              id="Path"></path>
          <path
              d="M23.1999412,42.2918483 C18.083057,36.962676 16.9459716,28.9421826 18.9003371,22 C27.641681,30.6353979 36.29419,39.3777357 45,48.0576919 C37.3779746,50.4014583 28.5477959,48.3339533 23.1999412,42.2918483 Z"
              id="Path"></path>
          <path
              d="M33,29.1017989 C42.2322593,28.3710805 51.8107284,31.5880234 58.2999414,38.3070675 C64.6204882,44.776598 67.647604,54.0086002 66.8841671,63 C55.5835267,51.7095108 44.2917633,40.4101104 33,29.1017989 Z"
              id="Path"></path>
          <path
              d="M89.283456,55.4528347 C96.740037,47.9089683 104.384825,40.5528047 111.823481,33 C112.988572,43.4577295 108.319247,54.3981235 99.7961597,60.6370083 C93.674952,65.4994056 85.7075236,67.3138664 78,66.9563372 C81.3966877,62.7732454 85.5462033,59.305212 89.283456,55.4528347 Z"
              id="Path"></path>
          <path
              d="M102,66.949724 C105.489055,59.92293 112.600674,54.9798794 120.21963,55.0079118 C128.016599,54.7743083 135.421939,59.7360472 139,66.9310358 C126.6637,67.0338213 114.3363,67.0057889 102,66.949724 Z"
              id="Path"></path>
          <path
              d="M33.4642791,55.5706777 C44.3308592,53.2887994 55.9634441,58.0034239 63,66.9706397 C47.002969,66.980069 30.997031,67.0460737 15,66.942352 C19.8365188,61.2470856 26.2406754,56.8059093 33.4642791,55.5706777 Z"
              id="Path"></path>
          <path
              d="M0,72.0672629 C12.3333333,71.9823579 24.6666667,71.9729241 37,72.0672629 C33.7628344,78.4257044 27.6452157,83.0860457 20.8052543,83.831323 C12.3690046,85.019993 4.03976862,79.8030522 0,72.0672629 Z"
              id="Path"></path>
          <path
              d="M38.5773027,80.4974005 C44.977119,74.2248005 54.157914,71.3125219 63,72.1369208 C51.778038,83.4813659 40.5649894,94.834772 29.1558461,106 C28.202113,96.6359043 31.6605096,86.8775308 38.5773027,80.4974005 Z"
              id="Path"></path>
          <path
              d="M78,72.106607 C94.0029817,71.9644643 110.005963,71.9644643 126,72.106607 C121.259038,77.7354552 114.916884,82.0092103 107.841223,83.3548272 C96.9280656,85.8091567 85.1293328,81.0900213 78,72.106607 Z"
              id="Path"></path>
          <path
              d="M55.026879,100.129923 C54.5884354,90.8560762 59.5542856,81.9316782 66.9601696,76 C66.9887638,92.0029867 67.0459521,108.005973 66.9315755,124 C59.7163191,118.059362 54.6170296,109.323129 55.026879,100.129923 Z"
              id="Path"></path>
          <path
              d="M73.1725906,76 C84.4066867,87.3286339 95.7122806,98.585397 107,109.869112 C99.8055312,110.506965 92.441255,108.818001 86.453312,104.703398 C77.1585944,98.5764132 71.9660647,87.0770861 73.1725906,76 Z"
              id="Path"></path>
          <path
              d="M96,90.6985638 C101.911364,89.4405914 108.438868,89.6636362 113.564431,93.1877431 C121.422438,97.9965878 124.958541,108.345864 121.913563,117 C113.376911,108.131741 104.170541,99.8880072 96,90.6985638 Z"
              id="Path"></path>
          <path
              d="M48.9782451,94.3471814 C49.8352299,93.7431021 50.3457741,93.9261564 50.5098776,94.9054971 C51.2756939,99.2438849 51.2756939,103.893465 49.5526073,108.02134 C47.0637044,114.144508 41.5571209,119.004601 35.1388513,120.542257 C31.4829903,121.219558 27.6812596,121.118878 24.0345155,120.414119 C23.7518929,118.940532 25.2744085,118.12594 26.0675754,117.137446 C33.7986728,109.641371 41.2836151,101.870715 48.9782451,94.3471814 Z"
              id="Path"></path>
          <path
              d="M73.0186433,102 C80.4106963,105.268932 85.4443768,113.055097 84.9689736,120.922087 C85.1554062,128.537621 80.0191878,135.722087 73,139 C73.2982922,126.66966 73.6431925,114.321359 73.0186433,102 Z"
              id="Path"></path>
        </g>
        <g id="Oval">
          <use fill="#FFC721" fill-rule="evenodd" xlink:href="#path-1"></use>
          <circle stroke="#000000" stroke-width="1" stroke-linejoin="square" cx="70.5" cy="70.5" r="33"></circle>
          <circle stroke="#FFFFFF" stroke-width="3" stroke-linejoin="square" cx="70.5" cy="70.5" r="32"></circle>
        </g>
      </g>
    </g>
  </g>
</svg>
