<?xml version="1.0" encoding="UTF-8"?>
<svg width="100px" height="100px" viewBox="0 0 100 100" version="1.1" xmlns="http://www.w3.org/2000/svg">
  <!-- Generator: Sketch 59.1 (86144) - https://sketch.com -->
  <title>Character</title>
  <desc>Created with Sketch.</desc>
  <g id="Page-1" stroke="none" stroke-width="1" fill="none" fill-rule="evenodd">
    <g id="Artboard" transform="translate(-68.000000, -226.000000)">
      <g id="Character" transform="translate(71.000000, 229.000000)">
        <rect id="Rectangle" stroke="#FFDE34" stroke-width="3" fill="#FFE800" x="-1.5" y="-1.5" width="97"
              height="96.8532147" rx="46.497792"></rect>
        <g id="Group" transform="translate(40.000000, 64.000000)" stroke="#4A4A4A" stroke-linecap="round"
           stroke-width="3">
          <line x1="14" y1="0" x2="7.03937065" y2="6.96778765" id="Line"></line>
          <line x1="0" y1="0" x2="7" y2="7" id="Line"></line>
        </g>
        <ellipse id="Oval" fill="#FFFFFF" fill-rule="nonzero" cx="23.5" cy="45.1077466" rx="16.6307692"
                 ry="19.6436961"></ellipse>
        <ellipse id="Oval" fill="#FFFFFF" fill-rule="nonzero" cx="70.5" cy="45.1077466" rx="16.6307692"
                 ry="19.6436961"></ellipse>
        <path
            d="M29.1490385,40.7900838 C27.7847889,40.7900838 26.6232169,41.2725034 25.6642879,42.237357 C24.7152447,43.2022106 24.2407302,44.3709591 24.2407302,45.7436374 C24.2407302,47.1063688 24.7152447,48.2701438 25.6642879,49.2349974 C26.6232169,50.1998511 27.7847889,50.6822706 29.1490385,50.6822706 C30.5034022,50.6822706 31.6600313,50.1998511 32.6189603,49.2349974 C33.5778894,48.2701438 34.0573468,47.1063688 34.0573468,45.7436374 C34.0573468,44.3709591 33.5778894,43.2022106 32.6189603,42.237357 C31.6600313,41.2725034 30.5034022,40.7900838 29.1490385,40.7900838 Z"
            id="Path" fill="#FFFFFF" fill-rule="nonzero"></path>
        <circle id="Oval" fill="#4A4A4A" cx="71" cy="45" r="11"></circle>
        <circle id="Oval" fill="#FFFFFF" cx="64.5" cy="37.5" r="4.5"></circle>
        <circle id="Oval" fill="#4A4A4A" cx="23" cy="45" r="11"></circle>
        <circle id="Oval" fill="#FFFFFF" cx="17.5" cy="37.5" r="4.5"></circle>
      </g>
    </g>
  </g>
</svg>
