<?xml version="1.0" encoding="UTF-8"?>
<svg width="30px" height="31px" viewBox="0 0 30 31" version="1.1" xmlns="http://www.w3.org/2000/svg"
>
  <!-- Generator: Sketch 59.1 (86144) - https://sketch.com -->
  <title>SearchActive</title>
  <desc>Created with Sketch.</desc>
  <g id="Pages" stroke="none" stroke-width="1" fill="none" fill-rule="evenodd">
    <g id="Group-2" transform="translate(-119.000000, -20.000000)" fill="#5E35B1" fill-rule="nonzero">
      <path
          d="M130.964809,20 C124.350074,20 119,25.4016837 119,32.0802292 C119,38.7587754 124.350074,44.1604585 130.964809,44.1604585 C133.32643,44.1604585 135.512097,43.4609599 137.365103,42.2729226 L144.513196,49.4899713 C145.331302,50.3159691 146.664111,50.3223668 147.490109,49.504261 C147.494895,49.4995207 147.499659,49.4947574 147.504399,49.4899713 C148.332399,48.6539834 148.33153,47.3067639 147.502452,46.471845 L140.466276,39.3861032 L140.466276,39.3861032 C142.000367,37.3542264 142.929619,34.8365865 142.929619,32.0802292 C142.929619,25.4016837 137.579546,20 130.964809,20 Z M131,24 C135.430289,24 139,27.5697114 139,32 C139,36.4302886 135.430289,40 131,40 C126.569711,40 123,36.4302886 123,32 C123,27.5697114 126.569711,24 131,24 Z"
          id="SearchActive"></path>
    </g>
  </g>
</svg>
