<?xml version="1.0" encoding="UTF-8"?>
<svg width="30px" height="31px" viewBox="0 0 30 31" version="1.1" xmlns="http://www.w3.org/2000/svg"
>
  <!-- Generator: Sketch 53.2 (72643) - https://sketchapp.com -->
  <title>Shape</title>
  <desc>Created with Sketch.</desc>
  <g id="Pages" stroke="none" stroke-width="1" fill="none" fill-rule="evenodd">
    <g id="Home" transform="translate(-24.000000, -602.000000)" fill="#DADADA" fill-rule="nonzero">
      <path
          d="M35.9648094,602 C29.3500737,602 24,607.401684 24,614.080229 C24,620.758775 29.3500737,626.160458 35.9648094,626.160458 C38.3264298,626.160458 40.5120971,625.46096 42.3651026,624.272923 L49.5131965,631.489971 C50.3313023,632.315969 51.6641115,632.322367 52.4901092,631.504261 C52.4948952,631.499521 52.4996585,631.494757 52.5043988,631.489971 L52.5043988,631.489971 C53.3323993,630.653983 53.3315302,629.306764 52.5024517,628.471845 L45.4662757,621.386103 C47.0003669,619.354226 47.9296188,616.836586 47.9296188,614.080229 C47.9296188,607.401684 42.5795458,602 35.9648094,602 Z M36,606 C40.4302886,606 44,609.569711 44,614 C44,618.430289 40.4302886,622 36,622 C31.5697114,622 28,618.430289 28,614 C28,609.569711 31.5697114,606 36,606 Z"
          id="Shape"></path>
    </g>
  </g>
</svg>