<?xml version="1.0" encoding="UTF-8"?>
<svg width="44px" height="38px" viewBox="0 0 44 38" version="1.1" xmlns="http://www.w3.org/2000/svg"
>
  <!-- Generator: Sketch 55.1 (78136) - https://sketchapp.com -->
  <title>TEL</title>
  <desc>Created with Sketch.</desc>
  <g id="Page-1" stroke="none" stroke-width="1" fill="none" fill-rule="evenodd">
    <g id="Desktop-HD" transform="translate(-536.000000, -5355.000000)" fill="#515B66" fill-rule="nonzero">
      <g id="Group-19" transform="translate(0.000000, 4861.000000)">
        <g id="Social-medias" transform="translate(444.000000, 494.000000)">
          <path
              d="M94.16,0 C92.9670649,0 92,0.945176639 92,2.11111111 L92,13.9242621 C92,15.009373 92.8410837,15.9153373 93.9448437,16.023004 L124.4,19 L93.9448437,21.976996 C92.8410837,22.0846627 92,22.990627 92,24.0757381 L92,35.8888889 C92,37.0548234 92.9670649,38 94.16,38 C94.5723848,38.0009358 94.9764255,37.8864733 95.324375,37.6701389 C95.3257832,37.6687665 95.3271894,37.6673921 95.3285937,37.6660159 L133.774063,20.9915357 L133.769845,20.9832897 C134.62648,20.6827148 135.198423,19.8895643 135.2,19 C135.198423,18.1104357 134.62648,17.3172852 133.769845,17.0167103 L133.774063,17.0084643 L95.2990626,0.321614689 C94.9575012,0.112666459 94.5629484,0.00126433147 94.16,0 Z"
              id="TEL"></path>
        </g>
      </g>
    </g>
  </g>
</svg>
