<?xml version="1.0" encoding="UTF-8"?>
<svg width="13px" height="17px" viewBox="0 0 13 17" version="1.1" xmlns="http://www.w3.org/2000/svg" xmlns:xlink="http://www.w3.org/1999/xlink">
    <!-- Generator: Sketch 59.1 (86144) - https://sketch.com -->
    <title>Trash</title>
    <desc>Created with Sketch.</desc>
    <g id="Main" stroke="none" stroke-width="1" fill="none" fill-rule="evenodd">
        <g id="iPhone-8" transform="translate(-328.000000, -4758.000000)" fill="#FFFFFF">
            <g id="Glyphs-/-Bar-Button-/-Trash-/-Light" transform="translate(325.000000, 4757.000000)">
                <path d="M12.5535714,3.05357143 L12.5535714,2.375 C12.5535714,1.6254707 11.9459579,1.01785714 11.1964286,1.01785714 L7.80357143,1.01785714 C7.0578654,1.02700794 6.45557937,1.62929397 6.44642857,2.375 L6.44642857,3.05357143 L3.05357143,3.05357143 L3.05357143,3.73214286 L3.73214286,3.73214286 L4.4175,16.6494286 C4.47597286,17.3941895 5.09212571,17.9718144 5.83910714,17.9821429 L13.1608929,17.9821429 C13.9078743,17.9718144 14.5240271,17.3941895 14.5825,16.6494286 L15.2678571,3.73214286 L15.9464286,3.73214286 L15.9464286,3.05357143 L12.5535714,3.05357143 Z M11.1964286,1.69642857 C11.5711932,1.69642857 11.875,2.00023535 11.875,2.375 L11.875,3.05357143 L7.125,3.05357143 L7.125,2.375 C7.125,2.00023535 7.42880678,1.69642857 7.80357143,1.69642857 L11.1964286,1.69642857 Z M13.9073214,16.6046429 C13.871524,16.9930833 13.5508455,17.293355 13.1608929,17.3035714 L5.83910714,17.3035714 C5.44915449,17.293355 5.12847604,16.9930833 5.09267857,16.6046429 L4.41071429,3.73214286 L14.5892857,3.73214286 L13.9073214,16.6046429 Z M9.83928571,15.9464286 L9.83928571,5.08928571 L9.16071429,5.08928571 L9.16071429,15.9464286 L9.83928571,15.9464286 Z M7.80357143,15.9464286 L7.125,5.08928571 L6.44642857,5.08928571 L7.125,15.9464286 L7.80357143,15.9464286 Z M12.5501786,5.08928571 L11.8580357,5.08928571 L11.1964286,15.9464286 L11.875,15.9464286 L12.5501786,5.08928571 Z" id="Trash"></path>
            </g>
        </g>
    </g>
</svg>