<svg xmlns="http://www.w3.org/2000/svg" width="21.684" height="17.622" viewBox="0 0 21.684 17.622"><path d="M21.626,7.7a8.9,8.9,0,0,1-2.557.7,4.46,4.46,0,0,0,1.957-2.461A8.933,8.933,0,0,1,18.2,7.022a4.451,4.451,0,0,0-7.58,4.058A12.632,12.632,0,0,1,1.451,6.43a4.458,4.458,0,0,0,1.377,5.942,4.445,4.445,0,0,1-2.016-.558v.056a4.455,4.455,0,0,0,3.568,4.364,4.451,4.451,0,0,1-1.171.155,4.285,4.285,0,0,1-.838-.081A4.459,4.459,0,0,0,6.526,19.4,8.918,8.918,0,0,1,1,21.3a8.748,8.748,0,0,1-1.06-.063,12.569,12.569,0,0,0,6.819,2A12.571,12.571,0,0,0,19.419,10.582c0-.193-.005-.387-.012-.576A9.044,9.044,0,0,0,21.626,7.7Z" transform="translate(0.059 -5.617)" fill="#525252"/></svg>