<?xml version="1.0" encoding="UTF-8"?>
<svg width="42px" height="38px" viewBox="0 0 42 38" version="1.1" xmlns="http://www.w3.org/2000/svg"
>
  <!-- Generator: Sketch 55.1 (78136) - https://sketchapp.com -->
  <title>YT</title>
  <desc>Created with Sketch.</desc>
  <g id="Page-1" stroke="none" stroke-width="1" fill="none" fill-rule="evenodd">
    <g id="Desktop-HD" transform="translate(-632.000000, -5355.000000)" fill="#515B66">
      <g id="Group-19" transform="translate(0.000000, 4861.000000)">
        <g id="Social-medias" transform="translate(444.000000, 494.000000)">
          <path
              d="M196.914286,0 L199.885714,8.76923077 L199.885714,14.6153846 L201.866667,14.6153846 L201.866667,8.76923077 L204.838095,0 L202.857143,0 L200.87619,5.84615385 L198.895238,0 L196.914286,0 Z M207.809524,3.8974359 C206.753274,3.8974359 206.234821,4.061098 205.588691,4.58253205 C204.969643,5.09635441 204.799405,5.49218774 204.838095,6.82051282 L204.838095,11.6923077 C204.838095,12.6628608 205.000596,13.3022839 205.596429,13.869391 C206.215476,14.4364982 206.799703,14.6153846 207.809524,14.6153846 C208.865774,14.6153846 209.442262,14.4364982 210.038095,13.869391 C210.657143,13.3251199 210.780952,12.6628608 210.780952,11.6923077 L210.780952,6.82051282 C210.780952,5.96033703 210.62619,5.14583333 210.026488,4.60156226 C209.40744,4.04206779 208.769048,3.8974359 207.809524,3.8974359 Z M212.761905,3.8974359 L212.761905,12.6666667 C212.761905,13.6143828 213.733036,14.6153846 214.742857,14.6153846 C215.752678,14.6153846 216.286607,14.1167866 216.72381,13.6410256 L216.72381,14.6153846 L218.704762,14.6153846 L218.704762,3.8974359 L216.72381,3.8974359 L216.72381,11.6923077 C216.712202,12.3583736 215.915179,12.6666667 215.733333,12.6666667 C215.528274,12.6666667 214.742857,12.6247994 214.742857,11.6923077 L214.742857,3.8974359 L212.761905,3.8974359 Z M207.809524,5.84615362 C208.10744,5.84615362 208.8,5.842348 208.8,6.82051282 L208.8,11.6923077 C208.8,12.6362179 208.130655,12.6666667 207.809524,12.6666667 C207.511607,12.6666667 206.819048,12.6552482 206.819048,11.6923077 L206.819048,6.82051282 C206.819048,6.02504031 207.248512,5.84615362 207.809524,5.84615362 Z M193.942857,16.5641026 C190.383333,16.5641026 188,18.8858178 188,22.4102564 L188,31.6666667 C188,35.1911063 190.383333,38 193.942857,38 L223.657143,38 C227.216667,38 229.6,35.6782857 229.6,32.1538462 L229.6,22.4102564 C229.6,18.8858178 227.216667,16.5641026 223.657143,16.5641026 L193.942857,16.5641026 Z M195.92381,20.4615385 L201.866667,20.4615385 L201.866667,22.4102564 L199.885714,22.4102564 L199.885714,34.1025641 L197.904762,34.1025641 L197.904762,22.4102564 L195.92381,22.4102564 L195.92381,20.4615385 Z M209.790476,20.4615385 L211.771429,20.4615385 L211.771429,24.3589744 C211.999703,24.0088141 212.340179,23.7309698 212.665179,23.5749204 C212.98244,23.4150641 213.303571,23.3237179 213.628571,23.3237179 C214.270834,23.3237179 214.77381,23.5520833 215.118155,23.9783654 C215.4625,24.4084533 215.733333,24.9793672 215.733333,25.8205128 L215.733333,31.6666667 C215.733333,32.3898242 215.485714,32.8389423 215.160714,33.2233571 C214.843453,33.6077729 214.36756,34.0949524 213.752381,34.1025641 C212.711607,34.1139826 212.154465,33.5659057 211.771429,33.1282051 L211.771429,34.1025641 L209.790476,34.1025641 L209.790476,20.4615385 Z M201.866667,23.3846154 L203.847619,23.3846154 L203.847619,31.1794872 C203.847619,31.4040467 204.114583,32.1614588 204.838095,32.1538462 C205.642857,32.1462345 205.650596,31.4078526 205.828571,31.1794872 L205.828571,23.3846154 L207.809524,23.3846154 L207.809524,34.1025641 L205.828571,34.1025641 L205.828571,33.1282051 C205.461012,33.5544872 205.271429,33.6877006 204.85744,33.8894231 C204.447322,34.1177885 204.029465,34.1025641 203.64256,34.1025641 C203.162798,34.1025641 202.617262,33.6762821 202.361905,33.3565705 C202.133631,33.0635018 201.866667,32.7628205 201.866667,32.1538462 L201.866667,23.3846154 Z M219.89256,23.3846154 C220.832739,23.3846154 221.494345,23.5825321 221.993453,24.1001603 C222.504167,24.6177885 222.666667,25.222957 222.666667,26.1973159 L222.666667,29.2307692 L218.704762,29.2307692 L218.704762,30.7379808 C218.704762,31.2822518 218.778274,31.6286063 218.921429,31.8341346 C219.056845,32.0586942 219.331548,32.157652 219.695238,32.1538462 C220.097619,32.1500403 220.352977,32.0701127 220.488393,31.8912262 C220.627678,31.7313699 220.685714,31.278446 220.685714,30.6923077 L220.685714,30.2051282 L222.666667,30.2051282 L222.666667,30.7836538 C222.666667,31.8455531 222.581548,32.6372198 222.047619,33.154848 C221.544643,33.6991191 220.759226,33.9503205 219.730059,33.9503205 C218.789881,33.9503205 218.054762,33.6762821 217.528571,33.1129808 C217.002381,32.5496795 216.727678,31.777043 216.727678,30.7836538 L216.727678,26.1973159 C216.727678,25.3143031 217.041072,24.6596557 217.61756,24.0773242 C218.081845,23.6091749 218.952381,23.3846154 219.89256,23.3846154 Z M212.761905,24.8461538 C212.216369,24.8461538 211.779167,25.3295275 211.771429,25.8205128 L211.771429,31.6666667 C211.779167,31.9483178 212.216369,32.1538462 212.761905,32.1538462 C213.30744,32.1538462 213.752381,31.7389826 213.752381,31.2023242 L213.752381,26.3076923 C213.752381,25.3333333 213.30744,24.8461538 212.761905,24.8461538 Z M219.695238,25.3333333 C219.149703,25.3333333 218.7125,25.7862583 218.704762,26.3076923 L218.704762,27.2820513 L220.685714,27.2820513 L220.685714,26.3076923 C220.685714,25.7101365 220.240774,25.3333333 219.695238,25.3333333 Z"
              id="YT"></path>
        </g>
      </g>
    </g>
  </g>
</svg>
